<svg xmlns="http://www.w3.org/2000/svg" width="120" height="34" viewBox="0 0 120 34">
    <g fill="none" fill-rule="evenodd">
        <path fill="#2D3C5D" d="M18.51 26.795c-.235 0-.392-.124-.47-.375l-3.644-11.554h-.078L10.637 26.42c-.078.25-.237.375-.47.375H6.952c-.234 0-.392-.124-.47-.375L.528 9.09c-.08-.251.012-.377.273-.377h3.762c.26 0 .43.126.508.376l3.645 11.928h.079l3.603-11.929c.078-.25.248-.375.509-.375h2.822c.26 0 .431.126.51.375l3.838 11.929h.079l3.447-11.929c.078-.25.249-.375.51-.375h3.76c.262 0 .354.126.274.375l-5.954 17.33c-.078.251-.234.377-.47.377H18.51zm13.062 0c-.261 0-.39-.124-.39-.375V9.09c0-.251.129-.377.39-.377h3.605c.261 0 .392.126.392.376V26.42c0 .25-.13.375-.392.375h-3.605zm0-21.496c-.261 0-.39-.124-.39-.375V1.661c0-.25.129-.376.39-.376h3.605c.261 0 .392.126.392.376v3.263c0 .252-.13.377-.392.377h-3.605V5.3zM50.93 26.42V15.99c0-1.174-.3-2.125-.902-2.85-.6-.726-1.487-1.088-2.663-1.088-1.149 0-2.037.363-2.664 1.088-.626.725-.94 1.676-.94 2.85v10.43c0 .25-.131.375-.392.375h-3.603c-.261 0-.393-.124-.393-.375V9.09c0-.251.13-.377.391-.377h3.605c.26 0 .391.126.391.376V10.4c.458-.574 1.079-1.068 1.902-1.482.821-.413 1.86-.618 3.113-.618 1.019 0 1.927.169 2.723.506a6.12 6.12 0 0 1 2.058 1.407 6.066 6.066 0 0 1 1.311 2.119c.3.813.451 1.708.451 2.683v11.404c0 .25-.13.376-.39.376h-3.605c-.262 0-.393-.124-.393-.375zm8.591.375c-.262 0-.39-.124-.39-.375V12.617c0-.15-.079-.226-.236-.226H57.64c-.261 0-.392-.125-.392-.374v-2.92c0-.25.13-.374.392-.374h1.253c.157 0 .235-.076.235-.226V6.18c0-2.124.529-3.664 1.588-4.614C61.774.617 63.334.14 65.398.14h1.724c.26 0 .392.125.392.376v3.001c0 .25-.131.376-.392.376h-1.214c-.496 0-.902.03-1.214.093-.314.063-.556.182-.726.357-.17.175-.287.4-.352.675-.066.275-.099.637-.099 1.088v2.39c0 .15.078.226.237.226h2.173c.26 0 .39.124.39.374v2.92c0 .25-.129.374-.39.374h-2.173c-.158 0-.237.075-.237.226V26.42c0 .25-.13.375-.391.375h-3.605zm45.072 0c-.262 0-.392-.124-.392-.375v-2.738c0-.125.04-.25.117-.375l9.64-10.843v-.075H105.1c-.262 0-.392-.125-.392-.374V9.089c0-.25.13-.376.392-.376h13.633c.261 0 .392.125.392.376v2.926c0 .15-.04.273-.119.374l-9.517 10.655v.075h9.246c.26 0 .39.124.39.374v2.927c0 .25-.13.375-.392.375h-14.14zm-28.52 2.204a4.074 4.074 0 0 1-2.817-1.118 3.737 3.737 0 0 1-1.168-2.697 3.74 3.74 0 0 1 1.168-2.7 4.076 4.076 0 0 1 2.818-1.117c1.056 0 2.069.401 2.817 1.117a3.745 3.745 0 0 1 1.168 2.7 3.745 3.745 0 0 1-1.168 2.698A4.077 4.077 0 0 1 76.073 29zm0-11.88c-4.652 0-8.422 3.61-8.422 8.065 0 4.453 3.77 8.063 8.422 8.063 4.65 0 8.42-3.61 8.42-8.063 0-4.455-3.77-8.064-8.42-8.064zM93.82 28.999a4.073 4.073 0 0 1-2.817-1.117 3.74 3.74 0 0 1-1.168-2.697c0-1.014.42-1.985 1.168-2.7a4.075 4.075 0 0 1 2.817-1.117c1.056 0 2.069.401 2.817 1.117a3.702 3.702 0 0 1 0 5.397 4.075 4.075 0 0 1-2.817 1.118v-.001zm0-11.878c-4.652 0-8.42 3.609-8.42 8.064 0 4.453 3.768 8.063 8.42 8.063s8.422-3.611 8.422-8.064c0-4.454-3.77-8.063-8.42-8.063h-.002z"/>
        <path fill="#F9AE17" d="M71.09 14.536l-1.893-2.196a.438.438 0 0 1 .063-.635l.006-.004c4.49-3.406 10.044-5.259 15.766-5.262 5.647.003 11.133 1.808 15.596 5.132a.44.44 0 0 1 .073.639l-1.871 2.21a.474.474 0 0 1-.645.067c-3.77-2.79-8.393-4.306-13.153-4.308-4.822.001-9.504 1.557-13.298 4.419a.476.476 0 0 1-.645-.062"/>
    </g>
</svg>
