<svg xmlns="http://www.w3.org/2000/svg" width="24" height="24" viewBox="0 0 24 24">
    <g fill="none" fill-rule="evenodd">
        <path d="M24 12V0H0v24h24z"/>
        <path fill="#BDBDBD" d="M11.866 9.03l2.722 2.688.017-.136c.001-.68-.271-1.331-.758-1.812a2.605 2.605 0 0 0-1.834-.749l-.147.008zm-3.724.666l1.34 1.322a2.381 2.381 0 0 0-.07.555c0 .68.272 1.332.759 1.812.486.48 1.146.75 1.834.75.19 0 .38-.027.561-.069l1.339 1.324c-.59.293-1.24.448-1.9.451-2.386 0-4.32-1.911-4.32-4.268 0-.674.172-1.306.457-1.877zM3.365 4.974l1.97 1.947.396.393A10.09 10.09 0 0 0 2.5 11.573a10.216 10.216 0 0 0 9.505 6.403c1.296.001 2.58-.242 3.784-.716l.362.358 2.533 2.492 1.096-1.084L4.463 3.89 3.365 4.974zm8.64 2.33c2.385.002 4.319 1.912 4.32 4.269 0 .555-.113 1.076-.311 1.563l2.522 2.493a10.094 10.094 0 0 0 2.964-4.056 10.218 10.218 0 0 0-9.505-6.403 10.17 10.17 0 0 0-3.438.599l1.866 1.843a4.237 4.237 0 0 1 1.582-.308z"/>
    </g>
</svg>
